<svg width="28" height="28" viewBox="0 0 28 28" fill="none" xmlns="http://www.w3.org/2000/svg">
<path d="M27.5768 26.3028L20.0248 18.7508C21.8396 16.5721 22.7445 13.7776 22.5514 10.9487C22.3583 8.11973 21.082 5.47415 18.988 3.56228C16.894 1.6504 14.1435 0.619434 11.3087 0.683846C8.47395 0.748258 5.77313 1.90309 3.76812 3.9081C1.7631 5.91311 0.608273 8.61393 0.543862 11.4487C0.47945 14.2835 1.51042 17.034 3.42229 19.128C5.33417 21.222 7.97975 22.4983 10.8087 22.6914C13.6376 22.8845 16.4321 21.9796 18.6108 20.1648L26.1628 27.7168L27.5768 26.3028ZM2.57678 11.7168C2.57678 9.93673 3.10462 8.19667 4.09355 6.71663C5.08248 5.23659 6.48809 4.08303 8.13263 3.40184C9.77716 2.72066 11.5868 2.54243 13.3326 2.88969C15.0784 3.23696 16.6821 4.09413 17.9407 5.3528C19.1994 6.61147 20.0566 8.21512 20.4038 9.96095C20.7511 11.7068 20.5729 13.5164 19.8917 15.1609C19.2105 16.8054 18.0569 18.2111 16.5769 19.2C15.0969 20.1889 13.3568 20.7168 11.5768 20.7168C9.19064 20.7141 6.90299 19.7651 5.21574 18.0778C3.52848 16.3905 2.57942 14.1029 2.57678 11.7168Z" fill="#232A56"/>
</svg>
